<?xml version="1.0" encoding="UTF-8"?><svg xmlns="http://www.w3.org/2000/svg" width="244" height="209" viewBox="-0.5 -0.5 244 209" ><style><![CDATA[.B{fill:none}.C{stroke:#000}.D{pointer-events:all}.E{fill:#000}.F{font-family:Helvetica}.G{font-size:16px}.H{text-anchor:middle}.I{stroke-miterlimit:10}.J{pointer-events:stroke}]]></style><g class="B C"><path d="M50.42 152.81q0 0-17.98 22.75m41.09-21.98q0 0 13.72 19.75" class="I J"/><circle cx="62.5" cy="137.5" r="19.5" class="D"/></g><text x="62.5" y="141.5" class="E F G H">+</text><circle cx="19" cy="189" r="19" class="B C D"/><text x="18.5" y="193.5" class="E F G H">2</text><circle cx="98" cy="189" r="19" class="B C D"/><text x="97.5" y="193.5" class="E F G H">3</text><circle cx="185" cy="189" r="19" class="B C D"/><text x="184.5" y="193.5" class="E F G H">20</text><g class="B C"><path d="M103.86 91.35q0 0-27.57 32.36m54-33.42q0 0 45.54 82.07" class="I J"/><circle cx="116.5" cy="76.5" r="19.5" class="D"/></g><text x="116.5" y="80.5" class="E F G H">*</text><circle cx="223.5" cy="76.5" r="19.5" class="B C D"/><text x="223.5" y="80.5" class="E F G H">10</text><g class="B C"><path d="M182.78 33.78q0 0 26.93 28.93" class="I J"/><circle cx="169.5" cy="19.5" r="19.5" class="D"/></g><text x="169.5" y="23.5" class="E F G H">+</text><path d="M155.71 33.29q0 0-25.42 29.42" class="B C I J"/></svg>