<?xml version="1.0" encoding="UTF-8"?><svg xmlns="http://www.w3.org/2000/svg" width="264" height="293" viewBox="-0.5 -0.5 264 293" ><style><![CDATA[.B{pointer-events:all}.C{fill:#000}.D{font-family:Helvetica}.E{text-anchor:middle}.F{font-size:16px}.G{fill:#d5e8d4}.H{stroke:#82b366}.I{stroke:#000}.J{stroke-miterlimit:10}.K{pointer-events:stroke}.L{fill:#dae8fc}.M{stroke:#6c8ebf}]]></style><path d="M50.42 152.81q0 0-17.98 22.75m41.09-21.98q0 0 13.72 19.75" fill="none" class="I J K"/><circle cx="62.5" cy="137.5" r="19.5" class="B L M"/><text x="62.5" y="141.5" class="C D E F">+</text><circle cx="19" cy="189" r="19" class="B G H"/><text x="18.5" y="193.5" class="C D E F">2</text><circle cx="98" cy="189" r="19" class="B G H"/><text x="97.5" y="193.5" class="C D E F">3</text><circle cx="185" cy="189" r="19" class="B G H"/><text x="184.5" y="193.5" class="C D E F">20</text><path d="M103.86 91.35q0 0-27.57 32.36m54-33.42q0 0 45.54 82.07" fill="none" class="I J K"/><circle cx="116.5" cy="76.5" r="19.5" class="B L M"/><text x="116.5" y="80.5" class="C D E F">*</text><circle cx="223.5" cy="76.5" r="19.5" class="B G H"/><text x="223.5" y="80.5" class="C D E F">10</text><path d="M182.78 33.78q0 0 26.93 28.93" fill="none" class="I J K"/><circle cx="169.5" cy="19.5" r="19.5" class="B L M"/><text x="169.5" y="23.5" class="C D E F">+</text><path d="M155.71 33.29q0 0-25.42 29.42" fill="none" class="I J K"/><path d="M71 248h50.5v17H71z" class="B G H"/><path d="M71 275h50.5v17H71z" class="B L M"/><text x="124.5" y="259.5" font-size="12" class="C D">Terminal Expression</text><text x="193.5" y="287.75" font-size="12" class="C D E">Non-Terminal Expression</text></svg>